<?xml version="1.0" standalone="no"?><svg xmlns="http://www.w3.org/2000/svg" viewBox="0 0 1440 320"><path fill="#cc99cc" fill-opacity="1" d="M0,0L30,42.7C60,85,120,171,180,218.7C240,267,300,277,360,234.7C420,192,480,96,540,96C600,96,660,192,720,197.3C780,203,840,117,900,90.7C960,64,1020,96,1080,96C1140,96,1200,64,1260,53.3C1320,43,1380,53,1410,58.7L1440,64L1440,320L1410,320C1380,320,1320,320,1260,320C1200,320,1140,320,1080,320C1020,320,960,320,900,320C840,320,780,320,720,320C660,320,600,320,540,320C480,320,420,320,360,320C300,320,240,320,180,320C120,320,60,320,30,320L0,320Z"></path></svg>