<?xml version="1.0" standalone="no"?><svg xmlns="http://www.w3.org/2000/svg" viewBox="0 0 1440 320"><path fill="#cc99cc" fill-opacity="1" d="M0,0L30,42.7C60,85,120,171,180,218.7C240,267,300,277,360,234.7C420,192,480,96,540,96C600,96,660,192,720,197.3C780,203,840,117,900,90.7C960,64,1020,96,1080,96C1140,96,1200,64,1260,53.3C1320,43,1380,53,1410,58.7L1440,64L1440,0L1410,0C1380,0,1320,0,1260,0C1200,0,1140,0,1080,0C1020,0,960,0,900,0C840,0,780,0,720,0C660,0,600,0,540,0C480,0,420,0,360,0C300,0,240,0,180,0C120,0,60,0,30,0L0,0Z"></path></svg>