<?xml version="1.0" standalone="no"?><svg xmlns="http://www.w3.org/2000/svg" viewBox="0 0 1440 320"><path fill="#cc99cc" fill-opacity="1" d="M0,256L30,256C60,256,120,256,180,234.7C240,213,300,171,360,154.7C420,139,480,149,540,176C600,203,660,245,720,234.7C780,224,840,160,900,138.7C960,117,1020,139,1080,176C1140,213,1200,267,1260,250.7C1320,235,1380,149,1410,106.7L1440,64L1440,320L1410,320C1380,320,1320,320,1260,320C1200,320,1140,320,1080,320C1020,320,960,320,900,320C840,320,780,320,720,320C660,320,600,320,540,320C480,320,420,320,360,320C300,320,240,320,180,320C120,320,60,320,30,320L0,320Z"></path></svg>