<?xml version="1.0" standalone="no"?><svg xmlns="http://www.w3.org/2000/svg" viewBox="0 0 1440 320"><path fill="#cc99cc" fill-opacity="1" d="M0,256L26.7,256C53.3,256,107,256,160,245.3C213.3,235,267,213,320,192C373.3,171,427,149,480,128C533.3,107,587,85,640,96C693.3,107,747,149,800,176C853.3,203,907,213,960,186.7C1013.3,160,1067,96,1120,64C1173.3,32,1227,32,1280,48C1333.3,64,1387,96,1413,112L1440,128L1440,0L1413.3,0C1386.7,0,1333,0,1280,0C1226.7,0,1173,0,1120,0C1066.7,0,1013,0,960,0C906.7,0,853,0,800,0C746.7,0,693,0,640,0C586.7,0,533,0,480,0C426.7,0,373,0,320,0C266.7,0,213,0,160,0C106.7,0,53,0,27,0L0,0Z"></path></svg>